<mxfile host="app.diagrams.net" modified="2023-04-25T19:59:06.516Z" agent="Mozilla/5.0 (Windows NT 10.0; Win64; x64) AppleWebKit/537.36 (KHTML, like Gecko) Chrome/112.0.0.0 Safari/537.36" etag="8_f7fchRJK-ZUT2NRX2a" version="21.2.1" type="github">
  <diagram name="Сторінка-1" id="gTk0HqFBgUfZGioBp6fL">
    <mxGraphModel dx="1195" dy="637" grid="1" gridSize="10" guides="1" tooltips="1" connect="1" arrows="1" fold="1" page="1" pageScale="1" pageWidth="1169" pageHeight="827" math="0" shadow="0">
      <root>
        <mxCell id="0" />
        <mxCell id="1" parent="0" />
        <mxCell id="cNH6Ihqkcq9NW6JE-Opy-5" style="edgeStyle=orthogonalEdgeStyle;rounded=0;orthogonalLoop=1;jettySize=auto;html=1;exitX=1;exitY=0.5;exitDx=0;exitDy=0;entryX=0;entryY=0.5;entryDx=0;entryDy=0;" edge="1" parent="1" source="cNH6Ihqkcq9NW6JE-Opy-1" target="cNH6Ihqkcq9NW6JE-Opy-2">
          <mxGeometry relative="1" as="geometry" />
        </mxCell>
        <mxCell id="cNH6Ihqkcq9NW6JE-Opy-1" value="AS" style="rounded=0;whiteSpace=wrap;html=1;fontSize=16;" vertex="1" parent="1">
          <mxGeometry x="10" y="10" width="120" height="60" as="geometry" />
        </mxCell>
        <mxCell id="cNH6Ihqkcq9NW6JE-Opy-6" style="edgeStyle=orthogonalEdgeStyle;rounded=0;orthogonalLoop=1;jettySize=auto;html=1;exitX=1;exitY=0.5;exitDx=0;exitDy=0;entryX=0;entryY=0.5;entryDx=0;entryDy=0;" edge="1" parent="1" source="cNH6Ihqkcq9NW6JE-Opy-2" target="cNH6Ihqkcq9NW6JE-Opy-3">
          <mxGeometry relative="1" as="geometry" />
        </mxCell>
        <mxCell id="cNH6Ihqkcq9NW6JE-Opy-2" value="DM" style="rounded=0;whiteSpace=wrap;html=1;fontSize=16;" vertex="1" parent="1">
          <mxGeometry x="170" y="10" width="120" height="60" as="geometry" />
        </mxCell>
        <mxCell id="cNH6Ihqkcq9NW6JE-Opy-7" style="edgeStyle=orthogonalEdgeStyle;rounded=0;orthogonalLoop=1;jettySize=auto;html=1;exitX=1;exitY=0.5;exitDx=0;exitDy=0;" edge="1" parent="1" source="cNH6Ihqkcq9NW6JE-Opy-3" target="cNH6Ihqkcq9NW6JE-Opy-4">
          <mxGeometry relative="1" as="geometry" />
        </mxCell>
        <mxCell id="cNH6Ihqkcq9NW6JE-Opy-3" value="Archive system" style="rounded=0;whiteSpace=wrap;html=1;fontSize=16;" vertex="1" parent="1">
          <mxGeometry x="330" y="10" width="120" height="60" as="geometry" />
        </mxCell>
        <mxCell id="cNH6Ihqkcq9NW6JE-Opy-4" value="DB" style="rounded=0;whiteSpace=wrap;html=1;fontSize=16;" vertex="1" parent="1">
          <mxGeometry x="490" y="10" width="120" height="60" as="geometry" />
        </mxCell>
      </root>
    </mxGraphModel>
  </diagram>
</mxfile>
